<svg width="80" height="17" viewBox="0 0 80 17" fill="none" xmlns="http://www.w3.org/2000/svg">
<path d="M16.4524 10.3726C15.3376 14.8471 10.805 17.5699 6.33008 16.454C1.85723 15.3387 -0.866107 10.8066 0.250272 6.33217C1.36455 1.85722 5.89716 -0.866114 10.3711 0.250265C14.8455 1.3656 17.5683 5.8982 16.4524 10.3731V10.3726Z" fill="#F7931A"/>
<path d="M12.0336 7.16235C12.2002 6.05122 11.3538 5.45372 10.1971 5.05486L10.5723 3.54906L9.65564 3.32107L9.29032 4.78651C9.04631 4.72645 8.8017 4.6688 8.55655 4.61355L8.92396 3.13867L8.00832 2.91016L7.63253 4.41491C7.43336 4.36984 7.23734 4.32476 7.04761 4.27759L7.04865 4.27235L5.785 3.95735L5.54128 4.93589C5.54128 4.93589 6.22107 5.09207 6.20691 5.10151C6.57799 5.19428 6.64508 5.43957 6.63355 5.63454L6.20587 7.34947C6.23207 7.35628 6.26457 7.36519 6.30126 7.37987L6.20429 7.35628L5.60522 9.75885C5.55962 9.87154 5.44484 10.0403 5.1854 9.97636C5.19431 9.98947 4.51924 9.81022 4.51924 9.81022L4.06378 10.8585L5.25616 11.1556C5.47839 11.2112 5.69537 11.2694 5.90974 11.3244L5.53027 12.847L6.44591 13.0755L6.82119 11.5692C7.07119 11.6373 7.31386 11.6997 7.55181 11.7584L7.17706 13.2579L8.09375 13.4864L8.47269 11.9665C10.0356 12.2621 11.2107 12.1431 11.7055 10.7295C12.1038 9.59166 11.6856 8.93493 10.8632 8.50725C11.4618 8.36888 11.913 7.97527 12.0331 7.16183L12.0336 7.16235ZM9.94023 10.098C9.65721 11.2364 7.74102 10.621 7.11941 10.4669L7.62257 8.44907C8.24418 8.60421 10.2358 8.91135 9.94023 10.098ZM10.2233 7.14558C9.96487 8.18072 8.37049 7.65503 7.85318 7.52609L8.30917 5.69639C8.82647 5.82532 10.4927 6.06589 10.2233 7.14558Z" fill="white"/>
<path d="M24.4762 5.05316C25.1534 5.05316 25.7383 5.17423 26.2304 5.4127C26.7076 5.64088 27.1275 5.97332 27.459 6.38547C27.7818 6.79481 28.0219 7.27386 28.177 7.82262C28.3306 8.37294 28.4076 8.9652 28.4076 9.59834C28.4076 10.5716 28.2294 11.4904 27.8699 12.3573C27.5098 13.2253 27.0213 13.9779 26.4002 14.6199C25.7732 15.2648 25.0264 15.7812 24.2016 16.1399C23.3577 16.5141 22.4405 16.7007 21.4552 16.7007C21.3278 16.7007 21.104 16.6976 20.788 16.6908C20.424 16.6796 20.0609 16.6481 19.7004 16.5964C19.2911 16.5393 18.8576 16.4549 18.4001 16.3417C17.9512 16.2333 17.5151 16.0774 17.0992 15.8768L20.757 0.509547L24.0328 0.00219727L22.723 5.45463C22.9953 5.3317 23.2778 5.23296 23.5674 5.15955C23.8648 5.08697 24.17 5.05106 24.4762 5.05263V5.05316ZM21.7282 14.1026C22.2214 14.1026 22.6863 13.981 23.1229 13.7426C23.5621 13.5025 23.9475 13.1752 24.2555 12.7808C24.5773 12.3695 24.8306 11.909 25.0056 11.417C25.1889 10.9082 25.282 10.3713 25.2807 9.83053C25.2807 9.15441 25.1675 8.62662 24.9421 8.24506C24.7168 7.86559 24.3001 7.67429 23.6947 7.67429C23.4966 7.67429 23.2414 7.71203 22.9243 7.77964C22.6052 7.85278 22.3101 8.00612 22.0668 8.22514L20.6726 14.0162C20.7565 14.0308 20.8309 14.045 20.8943 14.0581C20.9567 14.0728 21.0254 14.0827 21.0935 14.0895C21.1658 14.0979 21.2487 14.1021 21.3488 14.1021H21.7282V14.1026ZM31.8055 16.4067H28.6765L31.3181 5.28901H34.4686L31.805 16.4067H31.8055ZM33.327 3.93468C32.9002 3.93824 32.484 3.801 32.143 3.54421C31.7887 3.28529 31.6137 2.88696 31.6137 2.34921C31.6137 2.05413 31.6734 1.77687 31.7924 1.51586C31.913 1.25432 32.0712 1.02948 32.2694 0.838695C32.4664 0.648963 32.6955 0.498016 32.956 0.383758C33.2201 0.270819 33.5047 0.213375 33.7919 0.214991C34.228 0.214991 34.6221 0.344973 34.9749 0.605461C35.326 0.867522 35.5027 1.26585 35.5027 1.79993C35.5027 2.09659 35.4429 2.3749 35.3229 2.63538C35.2088 2.88909 35.0477 3.11887 34.848 3.31255C34.652 3.50228 34.4209 3.65323 34.1614 3.76591C33.8994 3.88017 33.6226 3.93416 33.327 3.93416V3.93468ZM37.2103 2.5185L40.4876 2.01116L39.6825 5.28849H43.1921L42.5584 7.86664H39.0704L38.1411 11.7556C38.0602 12.0524 38.0107 12.3568 37.9933 12.6639C37.9776 12.9464 38.0137 13.1891 38.0981 13.3935C38.182 13.5984 38.3334 13.7562 38.5525 13.8678C38.7706 13.9816 39.0829 14.0387 39.4928 14.0387C39.8233 14.0393 40.153 14.0072 40.4771 13.9428C40.7931 13.8799 41.1134 13.7929 41.4378 13.6791L41.6711 16.0901C41.2481 16.2447 40.7905 16.3784 40.2973 16.4905C39.8031 16.6043 39.2176 16.6588 38.542 16.6588C37.5703 16.6588 36.8166 16.5146 36.2799 16.2274C35.7438 15.9376 35.3648 15.5424 35.1374 15.0419C34.9141 14.5429 34.814 13.9679 34.8423 13.3201C34.8711 12.6707 34.9691 11.9883 35.1379 11.2692L37.2103 2.5185ZM43.0542 11.9674C43.0542 11.0093 43.2094 10.1067 43.5191 9.26081C43.8137 8.44045 44.2666 7.68594 44.8519 7.0401C45.4285 6.40801 46.1303 5.90747 46.9563 5.54007C47.7781 5.17423 48.699 4.98974 49.7132 4.98974C50.3484 4.98974 50.9155 5.05001 51.4145 5.17056C51.9161 5.29216 52.3694 5.44834 52.7793 5.64541L51.7001 8.09883C51.4127 7.98341 51.1201 7.88127 50.8233 7.79274C50.5203 7.69945 50.1508 7.65437 49.7137 7.65437C48.6696 7.65437 47.8436 8.01444 47.2294 8.73197C46.6172 9.45001 46.309 10.4165 46.309 11.6288C46.309 12.3474 46.4641 12.9286 46.7755 13.3731C47.0847 13.8175 47.6565 14.0387 48.4867 14.0387C48.8966 14.0387 49.2923 13.9957 49.6712 13.9124C50.0184 13.8378 50.3581 13.7317 50.6859 13.5953L50.9197 16.1105C50.524 16.2636 50.0879 16.4025 49.6094 16.5236C49.1293 16.641 48.558 16.7018 47.896 16.7018C47.0218 16.7018 46.2818 16.5739 45.6769 16.3218C45.071 16.066 44.571 15.7269 44.1769 15.2966C43.7801 14.864 43.487 14.3467 43.3199 13.784C43.1418 13.195 43.0522 12.5827 43.0542 11.9674ZM56.9529 16.7018C56.206 16.7018 55.5577 16.588 55.0073 16.3627C54.4586 16.1373 54.0042 15.8212 53.6446 15.4114C53.2851 15.0041 53.0157 14.5204 52.8312 13.9643C52.6467 13.4077 52.5581 12.7913 52.5581 12.1162C52.5581 11.2692 52.6939 10.4223 52.9685 9.5779C53.2328 8.74988 53.6452 7.97668 54.1855 7.29587C54.723 6.61663 55.3909 6.05173 56.1499 5.63441C56.923 5.20568 57.813 4.98974 58.8119 4.98974C59.5452 4.98974 60.1904 5.104 60.748 5.32937C61.3036 5.55422 61.7606 5.87288 62.1218 6.28065C62.4797 6.69051 62.7512 7.17166 62.9341 7.7288C63.1176 8.28437 63.2088 8.90231 63.2088 9.5779C63.2088 10.4223 63.0746 11.2687 62.8084 12.1157C62.5513 12.9404 62.1505 13.7131 61.6244 14.3982C61.1034 15.0744 60.4519 15.6268 59.6694 16.0566C58.8885 16.4863 57.9817 16.7018 56.9529 16.7018ZM58.5168 7.6549C58.053 7.6549 57.6426 7.7896 57.292 8.05533C56.9324 8.33215 56.6308 8.67713 56.4046 9.07055C56.1605 9.48965 55.9785 9.94196 55.8643 10.4133C55.7491 10.8657 55.6891 11.3303 55.6855 11.797C55.6855 12.5025 55.7993 13.0523 56.0231 13.448C56.25 13.8411 56.6573 14.0387 57.2495 14.0387C57.7149 14.0387 58.1227 13.905 58.476 13.6362C58.835 13.3593 59.1363 13.0147 59.3628 12.622C59.6069 12.203 59.7891 11.7509 59.9037 11.2797C60.0221 10.7944 60.0819 10.3316 60.0819 9.89552C60.0819 9.19162 59.9687 8.64077 59.7433 8.24611C59.5179 7.85301 59.1086 7.6549 58.5168 7.6549ZM66.6177 16.4067H63.4866L66.1287 5.28901H69.2807L66.6182 16.4067H66.6177ZM68.1376 3.93468C67.7113 3.93816 67.2957 3.80092 66.9552 3.54421C66.603 3.28529 66.4258 2.88696 66.4258 2.34921C66.4258 2.05413 66.4866 1.77687 66.6061 1.51586C66.7251 1.25432 66.8839 1.02948 67.082 0.838695C67.2786 0.648963 67.5097 0.498016 67.7686 0.383758C68.0321 0.270879 68.3159 0.213602 68.6025 0.215515C69.0402 0.215515 69.4353 0.345497 69.787 0.605985C70.1392 0.868046 70.3169 1.26638 70.3169 1.80046C70.3169 2.09711 70.254 2.37542 70.1356 2.63591C70.0218 2.88965 69.8608 3.11945 69.6612 3.31307C69.4631 3.50281 69.2346 3.65375 68.9746 3.76644C68.7126 3.8807 68.4348 3.93468 68.1381 3.93468H68.1376ZM71.5355 5.79427C71.7729 5.72508 72.0381 5.64122 72.3269 5.55055C72.6157 5.45988 72.9391 5.37497 73.3007 5.29897C73.6577 5.22035 74.0607 5.15693 74.5047 5.10714C74.9481 5.05683 75.4533 5.03272 76.0146 5.03272C77.6646 5.03272 78.8025 5.51281 79.4304 6.47091C80.0577 7.42952 80.1662 8.74035 79.759 10.4029L78.3197 16.4056H75.1708L76.5655 10.5292C76.6504 10.1623 76.7175 9.80746 76.7668 9.46049C76.8166 9.1172 76.8139 8.81425 76.7558 8.55219C76.7045 8.30133 76.5664 8.07658 76.3658 7.91748C76.1593 7.75605 75.8469 7.67481 75.424 7.67481C75.0162 7.67481 74.6011 7.71832 74.1776 7.80322L72.1267 16.4056H68.9762L71.5355 5.79427Z" fill="white"/>
</svg>
