<svg width="80" height="41" viewBox="0 0 80 41" fill="none" xmlns="http://www.w3.org/2000/svg">
<path fill-rule="evenodd" clip-rule="evenodd" d="M17.0303 25.4572C17.5338 25.4542 19.0304 25.3194 19.6642 27.4588C20.0912 28.8999 20.7714 31.2605 21.7048 34.5406H22.0849C23.0859 31.0825 23.7735 28.7219 24.1477 27.4588C24.7882 25.2971 26.3895 25.4573 27.0299 25.4573L31.9715 25.4573V40.8291H26.9349V31.7702H26.5972L23.7895 40.8291H20.0002L17.1925 31.7635H16.8548V40.8291H11.8182V25.4573L17.0303 25.4572ZM39.204 25.4573V34.5229H39.6058L43.021 27.0683C43.684 25.5848 45.0969 25.4573 45.0969 25.4573H49.9709V40.8292H44.8291V31.7635H44.4273L41.079 39.2181C40.416 40.6949 38.9361 40.8292 38.9361 40.8292H34.0622V25.4573H39.204ZM67.7431 32.7621C67.0259 34.7945 64.7735 36.2501 62.2799 36.2501H56.8877V40.8292H51.9982V32.7621H67.7431Z" fill="#0F754E"/>
<path fill-rule="evenodd" clip-rule="evenodd" d="M62.5157 25.4573H51.7418C51.9982 28.8796 54.9454 31.8093 57.9963 31.8093H68.0829C68.6649 28.965 66.6612 25.4573 62.5157 25.4573Z" fill="url(#paint0_linear)"/>
<path d="M16.1686 1.68237H9.28601V14.0491H16.1686V1.68237Z" fill="#FF5F00"/>
<path d="M9.72299 7.86602C9.72299 5.35334 10.9029 3.12471 12.7164 1.68265C11.3835 0.633879 9.70114 0.000244141 7.86579 0.000244141C3.51777 0.000244141 1.52588e-05 3.518 1.52588e-05 7.86602C1.52588e-05 12.2141 3.51777 15.7318 7.86579 15.7318C9.70114 15.7318 11.3835 15.0982 12.7164 14.0494C10.9029 12.6292 9.72299 10.3787 9.72299 7.86602Z" fill="#EB001B"/>
<path d="M25.4546 7.86578C25.4546 12.2138 21.9368 15.7316 17.5888 15.7316C15.7534 15.7316 14.071 15.0979 12.7382 14.0492C14.5736 12.6071 15.7316 10.3785 15.7316 7.86578C15.7316 5.3531 14.5517 3.12446 12.7382 1.68241C14.071 0.633635 15.7534 0 17.5888 0C21.9368 0 25.4546 3.5396 25.4546 7.86578Z" fill="#F79E1B"/>
<path d="M55.2727 14.13H51.7378L53.9488 0.459184H57.4834L55.2727 14.13Z" fill="white"/>
<path d="M68.0868 0.793448C67.3896 0.516838 66.2838 0.211426 64.9164 0.211426C61.4256 0.211426 58.9674 2.07289 58.9523 4.73422C58.9233 6.69775 60.7123 7.78834 62.0503 8.44304C63.4179 9.11205 63.8828 9.54871 63.8828 10.145C63.8689 11.0609 62.7777 11.483 61.76 11.483C60.3487 11.483 59.5925 11.2654 58.4434 10.7559L57.9779 10.5374L57.4833 13.6062C58.3123 13.9839 59.8398 14.3191 61.4256 14.3338C65.1346 14.3338 67.5493 12.5012 67.5779 9.66508C67.592 8.10883 66.6473 6.91637 64.6108 5.94195C63.3744 5.31644 62.6173 4.89466 62.6173 4.25465C62.6318 3.67282 63.2577 3.07688 64.6533 3.07688C65.8024 3.04769 66.6468 3.32392 67.2864 3.60034L67.6061 3.7455L68.0868 0.793448Z" fill="white"/>
<path d="M72.7849 9.28693C73.0761 8.50156 74.1962 5.46194 74.1962 5.46194C74.1815 5.49113 74.4867 4.66207 74.6613 4.15312L74.9083 5.33108C74.9083 5.33108 75.5777 8.60343 75.7231 9.28693C75.1706 9.28693 73.4831 9.28693 72.7849 9.28693ZM77.1483 0.459184H74.4141C73.5709 0.459184 72.9303 0.70622 72.5665 1.59346L67.316 14.1298H71.025C71.025 14.1298 71.6356 12.4425 71.7668 12.0791C72.1737 12.0791 75.7818 12.0791 76.3053 12.0791C76.4068 12.5591 76.7271 14.1298 76.7271 14.1298H80L77.1483 0.459184Z" fill="white"/>
<path d="M48.7854 0.459184L45.3236 9.78139L44.9453 7.89074C44.3053 5.70917 42.2981 3.33895 40.0582 2.1604L43.229 14.1155H46.967L52.5232 0.459184H48.7854Z" fill="white"/>
<path d="M42.1091 0.459184H36.4218L36.3636 0.735408C40.8 1.86988 43.7382 4.60389 44.9453 7.89074L43.709 1.60834C43.5054 0.735215 42.8799 0.487986 42.1091 0.459184Z" fill="white"/>
<defs>
<linearGradient id="paint0_linear" x1="68.1818" y1="29.453" x2="51.7418" y2="29.453" gradientUnits="userSpaceOnUse">
<stop stop-color="#1F5CD7"/>
<stop offset="1" stop-color="#02AEFF"/>
</linearGradient>
</defs>
</svg>
