<?xml version="1.0" encoding="UTF-8"?>
<!DOCTYPE svg PUBLIC "-//W3C//DTD SVG 1.1//EN" "http://www.w3.org/Graphics/SVG/1.1/DTD/svg11.dtd">
<!-- Creator: CorelDRAW X8 -->
<svg xmlns="http://www.w3.org/2000/svg" xml:space="preserve" width="50mm" height="50mm" version="1.1" style="shape-rendering:geometricPrecision; text-rendering:geometricPrecision; image-rendering:optimizeQuality; fill-rule:evenodd; clip-rule:evenodd"
viewBox="0 0 5000 5000"
 xmlns:xlink="http://www.w3.org/1999/xlink">
 <defs>
  <style type="text/css">
   <![CDATA[
    .fil0 {fill:#FCFCFC}
   ]]>
  </style>
 </defs>
 <g id="Слой_x0020_1">
  <metadata id="CorelCorpID_0Corel-Layer"/>
  <g id="_2087287178224">
   <path class="fil0" d="M2500 0c-1381,0 -2500,1119 -2500,2500 0,1381 1119,2500 2500,2500 1381,0 2500,-1120 2500,-2500 0,-1381 -1119,-2500 -2500,-2500zm0 4744c-1239,0 -2244,-1005 -2244,-2245 0,-1239 1005,-2243 2244,-2243 1239,0 2244,1004 2244,2243 0,1240 -1005,2245 -2244,2245z"/>
   <path class="fil0" d="M3575 1823l-398 -398c0,0 -636,677 -677,677 -41,0 -677,-677 -677,-677l-398 398c0,0 677,621 677,678 0,55 -677,676 -677,676l398 398c0,0 631,-677 677,-677 47,0 677,677 677,677l398 -398c0,0 -677,-631 -677,-676 0,-47 677,-678 677,-678z"/>
  </g>
 </g>
</svg>
