<?xml version="1.0" encoding="UTF-8"?>
<!DOCTYPE svg PUBLIC "-//W3C//DTD SVG 1.1//EN" "http://www.w3.org/Graphics/SVG/1.1/DTD/svg11.dtd">
<!-- Creator: CorelDRAW X8 -->
<svg xmlns="http://www.w3.org/2000/svg" xml:space="preserve" width="50mm" height="50mm" version="1.1" style="shape-rendering:geometricPrecision; text-rendering:geometricPrecision; image-rendering:optimizeQuality; fill-rule:evenodd; clip-rule:evenodd"
viewBox="0 0 5000 5000"
 xmlns:xlink="http://www.w3.org/1999/xlink">
 <defs>
  <style type="text/css">
   <![CDATA[
    .fil0 {fill:#F4441A}
    .fil1 {fill:#FEFEFE;fill-rule:nonzero}
   ]]>
  </style>
 </defs>
 <g id="Слой_x0020_1">
  <metadata id="CorelCorpID_0Corel-Layer"/>
  <g id="_2087145507232">
   <circle class="fil0" cx="2500" cy="2500" r="2500"/>
   <path class="fil1" d="M1459 1794c0,-132 43,-265 127,-401 85,-135 209,-247 371,-336 163,-89 352,-133 569,-133 201,0 379,37 533,111 153,74 272,175 356,303 84,128 126,267 126,416 0,118 -24,222 -72,311 -48,89 -104,166 -171,230 -65,64 -183,173 -354,326 -47,43 -85,80 -113,113 -29,33 -50,62 -64,90 -14,27 -25,54 -32,81 -7,27 -20,74 -34,142 -27,145 -109,217 -249,217 -71,0 -133,-24 -182,-71 -49,-47 -74,-117 -74,-210 0,-117 18,-218 54,-303 37,-85 84,-160 144,-225 60,-64 141,-141 242,-230 89,-78 153,-137 192,-176 40,-40 74,-84 101,-132 27,-48 40,-102 40,-159 0,-110 -41,-204 -123,-280 -84,-76 -190,-115 -320,-115 -153,0 -266,39 -338,116 -72,77 -133,191 -183,341 -47,156 -137,234 -269,234 -78,0 -143,-27 -197,-82 -53,-55 -80,-114 -80,-178zm1016 2282c-84,0 -158,-27 -222,-82 -63,-55 -94,-132 -94,-231 0,-87 30,-160 91,-220 62,-60 136,-90 225,-90 88,0 162,30 221,90 60,60 90,133 90,220 0,98 -31,175 -94,230 -63,56 -134,83 -217,83z"/>
  </g>
 </g>
</svg>
